<svg width="48" height="20" viewBox="0 0 48 20" fill="none" xmlns="http://www.w3.org/2000/svg">
<path fill-rule="evenodd" clip-rule="evenodd" d="M9.76516 0C9.87492 0.954075 9.50904 1.87146 8.96021 2.56866C8.37479 3.26587 7.46007 3.77961 6.54535 3.66952C6.43559 2.75214 6.87465 1.79807 7.38689 1.21094C7.97231 0.550429 8.96021 0.0366952 9.76516 0ZM7.63671 4.35419C8.22878 4.12689 8.96305 3.845 9.76516 3.88969C10.2774 3.92639 11.7409 4.07317 12.6923 5.46759C12.5825 5.50428 10.936 6.49505 10.9726 8.51329C10.9726 10.7363 12.7297 11.5681 13.0466 11.7181C13.0749 11.7315 13.0917 11.7395 13.0947 11.7425C13.0947 11.7792 12.7654 12.8433 11.9971 13.9809C11.3385 15.0083 10.6433 15.9257 9.54563 15.9624C8.99968 15.9807 8.64381 15.8264 8.27543 15.6668C7.90316 15.5055 7.51812 15.3386 6.91124 15.3386C6.26983 15.3386 5.8659 15.5146 5.47457 15.6852C5.12923 15.8357 4.7937 15.9819 4.31344 15.9991C3.25237 16.0358 2.44742 14.9349 1.78883 13.9809C0.361868 11.9993 -0.626027 8.4032 0.764343 5.94462C1.45953 4.69699 2.70354 3.96308 4.05732 3.92639C4.65828 3.92639 5.22402 4.15003 5.71468 4.34399C6.09034 4.49249 6.42198 4.6236 6.69171 4.6236C6.93494 4.6236 7.25651 4.50015 7.63671 4.35419ZM26.4159 5.87084C26.4159 3.00783 24.4465 1 21.6018 1H16.0947V15.8728H18.3559V10.7789H21.4924C24.41 10.7789 26.4159 8.77104 26.4159 5.87084ZM20.9818 8.88258H18.3924V8.91976H18.3559V3.00783H20.9818C22.9512 3.00783 24.0818 4.04892 24.0818 5.9452C24.0818 7.76712 22.9512 8.88258 20.9818 8.88258ZM31.0112 9.62622C28.4583 9.77495 27.0359 10.9648 27.0359 12.8611C27.0359 14.7573 28.4947 16.0959 30.7194 16.0959C32.1053 16.0959 33.4547 15.3522 34.0747 14.1252H34.1112V15.91H36.19V8.4364C36.19 6.24266 34.5124 4.86693 31.923 4.86693C29.2971 4.86693 27.6194 6.31702 27.51 8.28767H29.5888C29.7712 7.35812 30.5371 6.72603 31.8135 6.72603C33.1265 6.72603 33.9288 7.43248 33.9288 8.65949V9.47749L31.0112 9.62622ZM33.9288 11.002V11.8571C33.9288 13.2701 32.7253 14.3483 31.1936 14.3112C30.0265 14.3112 29.2606 13.6791 29.2606 12.7495C29.2606 11.82 29.99 11.225 31.303 11.1507L33.9288 11.002ZM38.05 18.1037V19.9256C38.1558 19.9436 38.3382 19.9529 38.515 19.9619C38.704 19.9715 38.8864 19.9808 38.9618 20C41.15 20 42.2077 19.182 43.1194 16.5421L47.0947 5.09002H44.7606L42.0618 13.9393H42.0253L39.3265 5.09002H36.9559L40.8218 15.9472C40.8218 15.9472 40.6394 16.5793 40.6394 16.6164C40.2747 17.6947 39.7641 18.1409 38.743 18.1409C38.5971 18.1409 38.1959 18.1409 38.05 18.1037Z" fill="white" fill-opacity="0.5"/>
</svg>
