<svg width="24" height="25" viewBox="0 0 24 25" fill="none" xmlns="http://www.w3.org/2000/svg">
<path d="M12 2.70703C14.717 2.70703 15.056 2.71703 16.122 2.76703C17.187 2.81703 17.912 2.98403 18.55 3.23203C19.21 3.48603 19.766 3.83003 20.322 4.38503C20.8305 4.88493 21.224 5.48962 21.475 6.15703C21.722 6.79403 21.89 7.52003 21.94 8.58503C21.987 9.65103 22 9.99003 22 12.707C22 15.424 21.99 15.763 21.94 16.829C21.89 17.894 21.722 18.619 21.475 19.257C21.2247 19.9248 20.8311 20.5296 20.322 21.029C19.822 21.5374 19.2173 21.9308 18.55 22.182C17.913 22.429 17.187 22.597 16.122 22.647C15.056 22.694 14.717 22.707 12 22.707C9.283 22.707 8.944 22.697 7.878 22.647C6.813 22.597 6.088 22.429 5.45 22.182C4.78233 21.9315 4.17753 21.538 3.678 21.029C3.16941 20.5292 2.77593 19.9245 2.525 19.257C2.277 18.62 2.11 17.894 2.06 16.829C2.013 15.763 2 15.424 2 12.707C2 9.99003 2.01 9.65103 2.06 8.58503C2.11 7.51903 2.277 6.79503 2.525 6.15703C2.77524 5.48921 3.1688 4.88435 3.678 4.38503C4.17767 3.87626 4.78243 3.48276 5.45 3.23203C6.088 2.98403 6.812 2.81703 7.878 2.76703C8.944 2.72003 9.283 2.70703 12 2.70703ZM12 7.70703C10.6739 7.70703 9.40215 8.23382 8.46447 9.1715C7.52678 10.1092 7 11.3809 7 12.707C7 14.0331 7.52678 15.3049 8.46447 16.2426C9.40215 17.1802 10.6739 17.707 12 17.707C13.3261 17.707 14.5979 17.1802 15.5355 16.2426C16.4732 15.3049 17 14.0331 17 12.707C17 11.3809 16.4732 10.1092 15.5355 9.1715C14.5979 8.23382 13.3261 7.70703 12 7.70703ZM18.5 7.45703C18.5 7.12551 18.3683 6.80757 18.1339 6.57315C17.8995 6.33873 17.5815 6.20703 17.25 6.20703C16.9185 6.20703 16.6005 6.33873 16.3661 6.57315C16.1317 6.80757 16 7.12551 16 7.45703C16 7.78855 16.1317 8.10649 16.3661 8.34091C16.6005 8.57534 16.9185 8.70703 17.25 8.70703C17.5815 8.70703 17.8995 8.57534 18.1339 8.34091C18.3683 8.10649 18.5 7.78855 18.5 7.45703ZM12 9.70703C12.7956 9.70703 13.5587 10.0231 14.1213 10.5857C14.6839 11.1483 15 11.9114 15 12.707C15 13.5027 14.6839 14.2657 14.1213 14.8284C13.5587 15.391 12.7956 15.707 12 15.707C11.2044 15.707 10.4413 15.391 9.87868 14.8284C9.31607 14.2657 9 13.5027 9 12.707C9 11.9114 9.31607 11.1483 9.87868 10.5857C10.4413 10.0231 11.2044 9.70703 12 9.70703Z" fill="#F7F5F9"/>
</svg>
