<svg width="15" height="14" viewBox="0 0 15 14" fill="none" xmlns="http://www.w3.org/2000/svg">
<g clip-path="url(#clip0_2_373)">
<path fill-rule="evenodd" clip-rule="evenodd" d="M12.3375 0.754395L13.1624 1.57935L12.4083 2.33354L14.1583 4.08354L11.2916 6.95017L9.54163 5.20016L7.93954 6.80225C8.11889 7.04482 8.26907 7.30848 8.38646 7.5879C8.58014 8.04893 8.68072 8.54372 8.68239 9.04379C8.68407 9.54385 8.58681 10.0393 8.39622 10.5016C8.20563 10.964 7.92546 11.384 7.57186 11.7376C7.21826 12.0912 6.79821 12.3714 6.33589 12.562C5.87357 12.7526 5.37811 12.8498 4.87805 12.8481C4.37798 12.8465 3.88319 12.7459 3.42216 12.5522C2.96112 12.3585 2.54296 12.0755 2.19173 11.7196L2.18736 11.7151C1.49668 11 1.11452 10.0422 1.12316 9.04806C1.1318 8.0539 1.53056 7.1029 2.23357 6.39989C2.93658 5.69689 3.88757 5.29812 4.88174 5.28948C5.68255 5.28252 6.45976 5.52915 7.10554 5.98634L12.3375 0.754395ZM11.5833 3.1585L10.3666 4.37521L11.2916 5.30025L12.5083 4.08354L11.5833 3.1585ZM6.766 7.21963L6.7383 7.19287C6.24322 6.71471 5.58014 6.45012 4.89187 6.45611C4.20361 6.46209 3.54522 6.73815 3.05853 7.22485C2.57183 7.71155 2.29576 8.36993 2.28978 9.0582C2.28381 9.74543 2.54759 10.4076 3.0244 10.9024C3.2671 11.1478 3.55582 11.3429 3.87403 11.4766C4.19321 11.6107 4.53576 11.6803 4.88196 11.6815C5.22815 11.6826 5.57116 11.6153 5.89123 11.4834C6.2113 11.3514 6.5021 11.1574 6.7469 10.9126C6.99171 10.6678 7.18566 10.377 7.31761 10.057C7.44956 9.7369 7.51689 9.3939 7.51573 9.0477C7.51458 8.7015 7.44494 8.35895 7.31085 8.03977C7.18254 7.73435 6.99763 7.4561 6.766 7.21963Z" fill="#F7F5F9"/>
</g>
<defs>
<clipPath id="clip0_2_373">
<rect width="14" height="14" fill="white" transform="translate(0.5)"/>
</clipPath>
</defs>
</svg>
