<svg width="24" height="25" viewBox="0 0 24 25" fill="none" xmlns="http://www.w3.org/2000/svg">
<g clip-path="url(#clip0_1008_721)">
<path d="M6.94 5.70705C6.93974 6.23749 6.72877 6.74609 6.35351 7.12098C5.97825 7.49586 5.46944 7.70632 4.939 7.70606C4.40857 7.70579 3.89997 7.49482 3.52508 7.11956C3.1502 6.7443 2.93974 6.23549 2.94 5.70505C2.94027 5.17462 3.15124 4.66602 3.5265 4.29113C3.90176 3.91625 4.41057 3.70579 4.941 3.70605C5.47144 3.70632 5.98004 3.91729 6.35492 4.29255C6.72981 4.66781 6.94027 5.17662 6.94 5.70705ZM7 9.18705H3V21.7071H7V9.18705ZM13.32 9.18705H9.34V21.7071H13.28V15.1371C13.28 11.4771 18.05 11.1371 18.05 15.1371V21.7071H22V13.7771C22 7.60705 14.94 7.83706 13.28 10.8671L13.32 9.18705Z" fill="#F7F5F9"/>
</g>
<defs>
<clipPath id="clip0_1008_721">
<rect width="24" height="24" fill="white" transform="translate(0 0.707031)"/>
</clipPath>
</defs>
</svg>
