<svg width="24" height="25" viewBox="0 0 24 25" fill="none" xmlns="http://www.w3.org/2000/svg">
<path d="M13.37 2.80111C10.9772 2.47196 8.54622 3.01966 6.5258 4.34307C4.50538 5.66647 3.03202 7.67621 2.37777 10.0012C1.72353 12.3261 1.93258 14.8093 2.96634 16.9922C4.00009 19.175 5.78873 20.9101 8.00197 21.8771C7.94212 21.1089 7.99706 20.3361 8.16497 19.5841C8.34997 18.7451 9.46097 14.1211 9.46097 14.1211C9.23974 13.6252 9.12918 13.0871 9.13697 12.5441C9.13697 11.0591 9.99397 9.95111 11.06 9.95111C11.2515 9.94832 11.4413 9.9868 11.6166 10.0639C11.792 10.1411 11.9486 10.2551 12.0759 10.3981C12.2032 10.5412 12.2983 10.71 12.3545 10.8931C12.4108 11.0762 12.427 11.2692 12.402 11.4591C12.402 12.3591 11.824 13.7211 11.522 14.9991C11.4623 15.2335 11.4585 15.4786 11.5109 15.7147C11.5633 15.9508 11.6705 16.1713 11.8237 16.3584C11.977 16.5456 12.172 16.6941 12.3932 16.792C12.6144 16.8899 12.8554 16.9344 13.097 16.9221C14.995 16.9221 16.267 14.4911 16.267 11.6211C16.267 9.42111 14.81 7.77311 12.124 7.77311C11.4813 7.74814 10.8404 7.85403 10.2399 8.08436C9.63946 8.31469 9.09209 8.66465 8.63102 9.113C8.16996 9.56134 7.80483 10.0987 7.5578 10.6925C7.31076 11.2863 7.18698 11.924 7.19397 12.5671C7.16534 13.2804 7.39548 13.9801 7.84197 14.5371C7.92541 14.5994 7.98633 14.6871 8.01555 14.787C8.04477 14.887 8.04071 14.9937 8.00397 15.0911C7.95797 15.2751 7.84197 15.7141 7.79597 15.8751C7.7864 15.9297 7.76415 15.9813 7.731 16.0257C7.69784 16.0701 7.65472 16.1062 7.6051 16.1309C7.55549 16.1556 7.50076 16.1683 7.44533 16.168C7.3899 16.1677 7.33531 16.1544 7.28597 16.1291C5.90197 15.5751 5.24997 14.0521 5.24997 12.3131C5.24997 9.46611 7.63397 6.05811 12.404 6.05811C16.2 6.05811 18.724 8.83511 18.724 11.8051C18.724 15.7141 16.547 18.6531 13.33 18.6531C12.8492 18.6685 12.3722 18.5624 11.9433 18.3446C11.5144 18.1268 11.1473 17.8044 10.876 17.4071C10.876 17.4071 10.298 19.7231 10.184 20.1611C9.95127 20.9178 9.60788 21.6359 9.16497 22.2921C10.088 22.5721 11.047 22.7121 12.011 22.7081C13.3246 22.7092 14.6254 22.4511 15.8391 21.9487C17.0528 21.4463 18.1555 20.7094 19.084 19.7802C20.0126 18.8511 20.7487 17.7479 21.2502 16.5338C21.7518 15.3198 22.0089 14.0187 22.007 12.7051C22.0057 10.2901 21.1308 7.9571 19.5436 6.13689C17.9564 4.31667 15.7643 3.13217 13.372 2.80211L13.37 2.80111Z" fill="#F7F5F9"/>
</svg>
