<svg width="24" height="25" viewBox="0 0 24 25" fill="none" xmlns="http://www.w3.org/2000/svg">
<path d="M21.5879 7.8982C21.3575 7.04138 20.6819 6.36597 19.8252 6.13525C18.2602 5.70703 11.9998 5.70703 11.9998 5.70703C11.9998 5.70703 5.73963 5.70703 4.17456 6.11902C3.33435 6.34949 2.64234 7.04151 2.41187 7.8982C2 9.46314 2 12.7086 2 12.7086C2 12.7086 2 15.9705 2.41187 17.5191C2.64258 18.3758 3.31787 19.0512 4.17469 19.2819C5.75611 19.7102 12 19.7102 12 19.7102C12 19.7102 18.2602 19.7102 19.8252 19.2982C20.682 19.0677 21.3575 18.3922 21.5882 17.5355C21.9999 15.9705 21.9999 12.7251 21.9999 12.7251C21.9999 12.7251 22.0164 9.46314 21.5879 7.8982ZM10.0066 15.7069V9.71034L15.2124 12.7086L10.0066 15.7069Z" fill="#F7F5F9"/>
</svg>
