<svg width="15" height="14" viewBox="0 0 15 14" fill="none" xmlns="http://www.w3.org/2000/svg">
<g clip-path="url(#clip0_2_376)">
<path d="M7.49999 12.8334C4.27824 12.8334 1.66666 10.2218 1.66666 7.00008C1.66666 3.77833 4.27824 1.16675 7.49999 1.16675C10.7217 1.16675 13.3333 3.77833 13.3333 7.00008C13.3333 10.2218 10.7217 12.8334 7.49999 12.8334ZM7.49999 11.6667C8.73767 11.6667 9.92465 11.1751 10.7998 10.2999C11.675 9.42474 12.1667 8.23776 12.1667 7.00008C12.1667 5.7624 11.675 4.57542 10.7998 3.70025C9.92465 2.82508 8.73767 2.33341 7.49999 2.33341C6.26231 2.33341 5.07533 2.82508 4.20016 3.70025C3.32499 4.57542 2.83332 5.7624 2.83332 7.00008C2.83332 8.23776 3.32499 9.42474 4.20016 10.2999C5.07533 11.1751 6.26231 11.6667 7.49999 11.6667ZM8.08332 7.00008H10.4167V8.16675H6.91666V4.08341H8.08332V7.00008Z" fill="#F7F5F9"/>
</g>
<defs>
<clipPath id="clip0_2_376">
<rect width="14" height="14" fill="white" transform="translate(0.5)"/>
</clipPath>
</defs>
</svg>
