<svg width="52" height="16" viewBox="0 0 52 16" fill="none" xmlns="http://www.w3.org/2000/svg">
<path d="M22.801 1.39044V0H17.6255V6.56597H22.801V5.17553H19.209V3.86234H22.7238V2.58777H19.209V1.39044H22.801Z" fill="white" fill-opacity="0.5"/>
<path d="M32.4869 0H30.9033V6.48872H32.4869V0Z" fill="white" fill-opacity="0.5"/>
<path d="M44.6226 11.664C44.2364 11.2778 43.6957 11.1233 42.8459 11.1233H41.9962C41.8031 11.1233 41.61 11.1233 41.4555 11.0461C41.2624 10.9688 41.0693 10.8529 41.0693 10.5826C41.0693 10.3895 41.0693 10.1964 41.2624 10.1191C41.4555 10.0419 41.6486 10.0419 41.919 10.0419H44.7771V8.41968H41.7259C40.0651 8.41968 39.4857 9.42388 39.4857 10.3508C39.4857 12.3979 41.2624 12.282 42.7301 12.3979C43.0004 12.3979 43.1936 12.4751 43.2708 12.591C43.3481 12.6682 43.4639 12.8614 43.4639 13.0545C43.4639 13.2476 43.3867 13.4407 43.2708 13.518C43.0777 13.7111 42.8846 13.7111 42.6142 13.7111H39.6402V15.1015H42.6142C44.1978 15.1015 45.0089 14.4449 45.0089 13.0545C45.0861 12.3979 44.893 11.9344 44.6226 11.664Z" fill="white" fill-opacity="0.5"/>
<path d="M51.1893 12.7069C50.9962 11.7027 50.1465 11.3551 49.8762 11.2392C49.6058 11.1233 49.2968 11.0847 48.8719 11.0847H48.1381H48.0609C47.8677 11.0847 47.6746 11.0847 47.5201 11.0074C47.2498 10.9302 47.1339 10.8143 47.1339 10.544C47.1339 10.3508 47.2111 10.1577 47.327 10.0805C47.5201 10.0032 47.7132 10.0032 47.9836 10.0032H48.0609H48.7947H50.8417V8.41968H47.7905C47.636 8.41968 47.4429 8.41968 47.327 8.4583C46.0911 8.69004 45.589 9.50113 45.589 10.3508C45.589 12.3979 47.3656 12.282 48.8333 12.3979C49.1037 12.3979 49.2968 12.4751 49.374 12.591C49.4513 12.6682 49.5672 12.8614 49.5672 13.0545C49.5672 13.2476 49.4899 13.4407 49.374 13.518C49.1809 13.7111 48.9878 13.7111 48.7175 13.7111H45.7434V15.1015H48.7175C49.6444 15.1015 50.301 14.8312 50.6486 14.4449C51.0349 14.0587 51.1893 13.5952 51.1893 13.0545C51.1893 12.9386 51.1893 12.8227 51.1893 12.7069Z" fill="white" fill-opacity="0.5"/>
<path d="M38.7908 9.88849V8.49805H33.6152V15.064H38.7908V13.6736H35.1988V12.399H38.7135V11.0858H35.1988V9.88849H38.7908Z" fill="white" fill-opacity="0.5"/>
<path d="M14.115 0L12.2611 4.44169L12.2225 4.51893L11.4114 2.62639L10.2527 0.077247L10.214 0H8.3215H7.78077V6.21836L5.19301 0H2.87561L0.0947266 6.48872H1.71691L2.06452 5.75488L2.3735 5.09828H5.502L6.15859 6.48872H9.28709V1.39044L11.5272 6.48872H12.3383H12.8404H12.9177L15.0806 1.62218L15.1578 1.42906V5.948V6.48872H15.6986H16.6255V0H14.115ZM2.91423 3.70784L3.91844 1.12008L4.92265 3.70784H2.91423Z" fill="white" fill-opacity="0.5"/>
<path d="M49.2456 0.077247V4.59618L46.5806 0.077247H44.2632V3.66922V3.86234V5.948V6.25698L43.568 4.6348L41.6755 0.077247H40.285H39.3581L37.4655 4.6348L37.2338 5.13691H36.5772C36.1137 5.13691 35.7275 5.05966 35.4571 4.75067C35.0709 4.36444 34.9936 3.90096 34.9936 3.16712C34.9936 2.51052 35.1867 1.96979 35.4571 1.69943C35.8433 1.42906 36.1137 1.31319 36.6544 1.31319H38.0062H38.1221V1.08145V0H36.6544C35.6502 0 34.8005 0.193116 34.337 0.733843C33.6804 1.46769 33.4873 2.39465 33.4873 3.32161C33.4873 4.51893 33.7577 5.25278 34.337 5.83213C34.8777 6.37285 35.8047 6.56597 36.5385 6.56597H38.3152L38.856 5.09828H42.1003L42.3707 5.75488L42.641 6.4501H44.2246H45.7695V5.60039V1.58356L48.7435 6.48872H50.7906V0.077247H49.2456ZM39.4353 3.70784L40.5554 1.12008L41.5596 3.70784H39.4353Z" fill="white" fill-opacity="0.5"/>
<path d="M29.7493 5.02343C29.7493 4.98481 29.7493 5.02343 29.7493 5.02343C29.7493 4.98481 29.7493 4.9848 29.7493 4.9848C29.7493 4.90756 29.7493 4.83031 29.7493 4.79169V4.75307C29.7493 4.71444 29.7493 4.67582 29.7106 4.59857V4.55995C29.7106 4.52133 29.672 4.4827 29.672 4.44408C29.672 4.44408 29.672 4.44408 29.672 4.40545C29.672 4.36683 29.6334 4.28959 29.6334 4.25096C29.5948 4.13509 29.5175 4.01922 29.4403 3.90335C29.4017 3.86473 29.4017 3.8261 29.363 3.78748C29.0927 3.51712 28.7837 3.43987 28.7837 3.43987C29.2472 3.24675 29.8651 2.70603 29.9038 1.74044C29.9038 1.0066 29.6334 0.581743 29.1699 0.311379C28.7064 0.0410159 28.1657 0.0410156 27.316 0.0410156H23.8013V4.4827V6.49112H25.3848V5.10068V4.17371H27.0456C27.4705 4.17371 27.7409 4.17372 27.8953 4.25096C27.9726 4.28959 28.0885 4.36683 28.1657 4.44408C28.2816 4.59857 28.3588 4.79169 28.3974 4.9848C28.4361 5.17792 28.4361 5.37104 28.4361 5.56416C28.4361 5.6414 28.4361 5.68003 28.4361 5.71865V6.49112H29.8265V5.17792C29.7493 5.1393 29.7493 5.06205 29.7493 5.02343ZM28.0885 2.59016C28.0498 2.62878 28.0498 2.6674 28.0112 2.70603L27.9726 2.74465C27.934 2.78327 27.934 2.78327 27.8953 2.78327C27.7022 2.86052 27.4319 2.86052 27.1615 2.86052H25.3076V1.39283H27.1615C27.4319 1.39283 27.7022 1.39283 27.8953 1.47008C28.0112 1.54733 28.1271 1.62457 28.1657 1.77907C28.1657 1.77907 28.1657 1.77907 28.1657 1.81769C28.1657 1.85631 28.1657 1.85631 28.1657 1.89494C28.243 2.24255 28.1657 2.47429 28.0885 2.59016Z" fill="white" fill-opacity="0.5"/>
<path d="M25.7745 9.81212C25.3883 8.84653 24.3068 8.61479 23.3412 8.61479H18.4361L16.5049 10.7391L16.4663 10.7777L16.1187 10.3915L14.4579 8.57617H8.43262V15.0649H14.342L16.389 12.9406L16.4663 13.0565L18.2429 15.1035H21.2942V14.0993V13.5586V13.0179V12.6702H23.1481C24.5386 12.6702 25.8131 12.284 25.8131 10.4301C25.8518 10.1984 25.8131 10.0052 25.7745 9.81212ZM13.6468 13.7903H9.86168V12.3999H10.7114H13.2992V11.0867H10.7114H9.86168V9.88937H13.724L15.3848 11.8205L13.6468 13.7903ZM19.7493 14.5242L17.3546 11.8592L19.7493 9.27139V14.5242ZM23.3412 11.5502H21.2942V9.88937H23.2254C23.7661 9.88937 24.1523 10.1597 24.2296 10.7391C24.2682 11.2798 23.9206 11.5502 23.3412 11.5502Z" fill="white" fill-opacity="0.5"/>
<path d="M32.6895 13.5562C32.6895 13.5176 32.6895 13.4789 32.6895 13.4403C32.6895 13.4017 32.6895 13.4017 32.6895 13.3631C32.6895 13.3245 32.6895 13.3245 32.6895 13.2858C32.6895 13.2472 32.6895 13.2472 32.6895 13.2086V13.17C32.6509 13.0541 32.6509 12.9768 32.6123 12.861C32.6123 12.8223 32.5736 12.7837 32.5736 12.7837C32.535 12.7065 32.4964 12.6679 32.4578 12.5906C32.3805 12.3975 32.0715 12.2044 31.608 12.0499C32.0715 11.8568 32.7281 11.316 32.7281 10.2732C32.7281 9.53936 32.3419 9.07588 31.8784 8.80552C31.4149 8.53516 30.7583 8.53516 30.0245 8.53516H26.5098V12.9382V15.0625H28.0933V13.6721V12.6679H29.7541C30.2949 12.6679 30.6811 12.6679 30.8742 12.9382C31.1446 13.2086 31.1446 13.8652 31.1446 14.2514V15.1011H32.7281V13.7879C32.7281 13.7107 32.7281 13.6721 32.7281 13.5948C32.6895 13.5948 32.6895 13.5562 32.6895 13.5562ZM31.0287 10.7367C31.0287 11.007 30.9515 11.2774 30.7583 11.3933C30.5652 11.4705 30.2949 11.4705 30.0245 11.4705H28.1706V10.0028H30.0245C30.2949 10.0028 30.5652 10.0028 30.7583 10.0801C30.9515 10.1573 31.1059 10.3505 31.0287 10.7367Z" fill="white" fill-opacity="0.5"/>
</svg>
