<svg width="15" height="14" viewBox="0 0 15 14" fill="none" xmlns="http://www.w3.org/2000/svg">
<path d="M12.1667 13.4167H11V12.2501C11 11.786 10.8156 11.3408 10.4874 11.0126C10.1593 10.6845 9.71414 10.5001 9.25001 10.5001H5.75001C5.28588 10.5001 4.84076 10.6845 4.51257 11.0126C4.18438 11.3408 4.00001 11.786 4.00001 12.2501V13.4167H2.83334V12.2501C2.83334 11.4765 3.14063 10.7347 3.68762 10.1877C4.2346 9.64071 4.97646 9.33341 5.75001 9.33341H9.25001C10.0236 9.33341 10.7654 9.64071 11.3124 10.1877C11.8594 10.7347 12.1667 11.4765 12.1667 12.2501V13.4167ZM7.50001 8.16675C7.04038 8.16675 6.58526 8.07622 6.16062 7.90033C5.73598 7.72443 5.35014 7.46663 5.02514 7.14162C4.70013 6.81662 4.44232 6.43078 4.26643 6.00614C4.09054 5.5815 4.00001 5.12637 4.00001 4.66675C4.00001 4.20712 4.09054 3.752 4.26643 3.32736C4.44232 2.90272 4.70013 2.51688 5.02514 2.19187C5.35014 1.86687 5.73598 1.60906 6.16062 1.43317C6.58526 1.25728 7.04038 1.16675 7.50001 1.16675C8.42827 1.16675 9.31851 1.5355 9.97488 2.19187C10.6313 2.84825 11 3.73849 11 4.66675C11 5.59501 10.6313 6.48524 9.97488 7.14162C9.31851 7.798 8.42827 8.16675 7.50001 8.16675ZM7.50001 7.00008C8.11885 7.00008 8.71234 6.75425 9.14993 6.31666C9.58751 5.87908 9.83334 5.28559 9.83334 4.66675C9.83334 4.04791 9.58751 3.45442 9.14993 3.01683C8.71234 2.57925 8.11885 2.33341 7.50001 2.33341C6.88117 2.33341 6.28768 2.57925 5.85009 3.01683C5.41251 3.45442 5.16668 4.04791 5.16668 4.66675C5.16668 5.28559 5.41251 5.87908 5.85009 6.31666C6.28768 6.75425 6.88117 7.00008 7.50001 7.00008Z" fill="#F7F5F9"/>
</svg>
