<svg width="24" height="24" viewBox="0 0 24 24" fill="none" xmlns="http://www.w3.org/2000/svg">
<path fill-rule="evenodd" clip-rule="evenodd" d="M21.5603 6.5312C21.465 6.50361 21.3698 6.47602 21.2745 6.45762L19.0364 6.05295C18.0268 5.86901 17.0268 5.5471 16.103 5.10564L14.2553 4.21352C14.16 4.16753 14.0743 4.13074 13.9791 4.10315C13.2552 3.87322 12.4933 4.03877 11.9504 4.48943C12.2457 4.63659 12.4838 4.87571 12.6362 5.17002C12.9219 4.95849 13.3029 4.88491 13.6648 5.00447C13.6751 5.00846 13.6859 5.01244 13.6969 5.01652C13.7367 5.03126 13.7799 5.04725 13.8172 5.06885L15.6648 5.96098C16.6744 6.44843 17.7601 6.79792 18.8554 6.99106L21.0936 7.39573L21.1141 7.39962C21.157 7.40769 21.205 7.4167 21.246 7.43252C21.8365 7.61647 22.1508 8.23268 21.9507 8.8029L20.2459 13.751C19.4269 16.1422 17.5982 18.1104 15.2267 19.1497L13.3695 19.9683C13.16 20.0602 12.9314 20.0694 12.7219 20.005C12.5028 19.9315 12.3219 19.7935 12.2171 19.5912L12.1409 19.4532L11.9695 19.7199C11.8362 19.9315 11.6457 20.0878 11.4361 20.1982C11.6647 20.5293 12.0076 20.7776 12.4076 20.9064C12.8552 21.0535 13.3505 21.0259 13.7791 20.8328L15.6363 20.0142C18.2554 18.8646 20.284 16.6849 21.1888 14.0453L22.8936 9.09721C23.2555 8.03953 22.6651 6.88069 21.5603 6.5312ZM7.64612 5.4917L9.7319 4.62717C10.6272 4.25008 11.6462 4.73753 11.9129 5.64805L13.3415 10.6789C14.0654 13.2449 13.6558 15.9857 12.2082 18.239L11.1415 19.9036C10.7605 20.5107 9.95096 20.713 9.30332 20.3819L7.38897 19.407C4.97938 18.1654 3.17932 16.0224 2.45549 13.484L1.05545 8.53596C0.798301 7.61624 1.46499 6.68733 2.44597 6.56777L4.53175 6.31025C5.60797 6.17229 6.65562 5.90557 7.64612 5.4917ZM5.94131 10.8077C5.24605 10.4214 4.55079 10.6053 4.07459 11.0192C3.26504 11.8101 4.01745 12.8954 5.01747 12.7667C5.32008 12.7619 5.58267 12.6147 5.84113 12.4698C6.08701 12.332 6.32916 12.1962 6.59847 12.1872C6.79848 12.1412 6.92229 11.9389 6.86515 11.7458C6.79153 11.2402 6.42283 11.0535 6.09696 10.8885C6.04342 10.8614 5.99104 10.8349 5.94131 10.8077ZM5.86512 16.0592H5.8556C8.08423 17.8435 11.2939 17.3284 11.9605 14.4497C10.2081 15.535 8.03661 16.4731 5.86512 16.0592ZM10.0836 11.3609C10.3829 11.3575 10.687 11.354 10.951 11.2123C11.8748 10.8169 11.951 9.51086 10.8272 9.23494C10.2081 9.10618 9.51285 9.29013 9.11283 9.97072C9.08484 10.0183 9.05424 10.0667 9.02295 10.1161C8.83071 10.4198 8.61281 10.764 8.81759 11.2307C8.87473 11.4239 9.08426 11.5434 9.28427 11.4882C9.52067 11.3674 9.79994 11.3642 10.0836 11.3609ZM17.4349 11.1174C17.0991 11.2674 16.7161 11.4385 16.6173 11.9391C16.604 11.9776 16.5979 12.0165 16.5982 12.0545C16.5971 12.2044 16.7013 12.3468 16.8554 12.3989C17.1242 12.4257 17.3591 12.5723 17.5975 12.721C17.8492 12.878 18.1047 13.0374 18.4079 13.0611C19.1772 13.1955 19.8338 12.606 19.7445 11.95C19.7202 11.7504 19.6267 11.5444 19.446 11.3504C18.9888 10.9182 18.3126 10.6974 17.5888 11.0469C17.5395 11.0707 17.4878 11.0938 17.4349 11.1174ZM14.5587 10.2079C14.7337 10.5178 14.9304 10.8663 14.7024 11.3224C14.6548 11.4512 14.5405 11.5432 14.4072 11.5707C14.35 11.2121 14.2643 10.8534 14.1691 10.5039L13.8643 9.40942C14.1024 9.54737 14.3214 9.74971 14.4738 10.0532C14.5 10.1038 14.5291 10.1553 14.5587 10.2079ZM14.5 15C15.7 15.2759 16.256 16.3627 16.675 17.1536H16.656C15.9417 16.4638 15.1215 16.434 14.1691 16.1949C14.2262 16.0385 14.4619 15.1656 14.5 15Z" fill="#F7F5F9"/>
</svg>
