<svg width="25" height="24" viewBox="0 0 25 24" fill="none" xmlns="http://www.w3.org/2000/svg">
<path d="M12.0947 18.2932C10.9858 18.9448 9.72449 19.2918 8.43838 19.2991C7.15227 19.3064 5.88705 18.9739 4.77078 18.3351C3.65452 17.6962 2.72684 16.7738 2.08166 15.6613C1.43647 14.5487 1.09668 13.2854 1.09668 11.9992C1.09668 10.7131 1.43647 9.44978 2.08166 8.33719C2.72684 7.22459 3.65452 6.3022 4.77078 5.66338C5.88705 5.02456 7.15227 4.69199 8.43838 4.69934C9.72449 4.70669 10.9858 5.05369 12.0947 5.70522C13.2036 5.05369 14.465 4.70669 15.7511 4.69934C17.0372 4.69199 18.3024 5.02456 19.4187 5.66338C20.5349 6.3022 21.4626 7.22459 22.1078 8.33719C22.753 9.44978 23.0928 10.7131 23.0928 11.9992C23.0928 13.2854 22.753 14.5487 22.1078 15.6613C21.4626 16.7738 20.5349 17.6962 19.4187 18.3351C18.3024 18.9739 17.0372 19.3064 15.7511 19.2991C14.465 19.2918 13.2036 18.9448 12.0947 18.2932ZM13.7967 16.9092C14.6014 17.2362 15.4741 17.3605 16.3381 17.271C17.2021 17.1816 18.0308 16.8811 18.7514 16.3961C19.472 15.9112 20.0624 15.2565 20.4705 14.4898C20.8787 13.7231 21.0922 12.8678 21.0922 11.9992C21.0922 11.1306 20.8787 10.2753 20.4705 9.50863C20.0624 8.74191 19.472 8.08726 18.7514 7.60229C18.0308 7.11731 17.2021 6.81687 16.3381 6.72741C15.4741 6.63794 14.6014 6.76219 13.7967 7.08922C15.0203 8.43149 15.6973 10.183 15.6947 11.9992C15.6947 13.8892 14.9757 15.6132 13.7967 16.9092ZM10.3927 7.08922C9.58805 6.76219 8.71533 6.63794 7.85135 6.72741C6.98738 6.81687 6.15863 7.11731 5.43804 7.60229C4.71744 8.08726 4.12708 8.74191 3.71891 9.50863C3.31074 10.2753 3.09726 11.1306 3.09726 11.9992C3.09726 12.8678 3.31074 13.7231 3.71891 14.4898C4.12708 15.2565 4.71744 15.9112 5.43804 16.3961C6.15863 16.8811 6.98738 17.1816 7.85135 17.271C8.71533 17.3605 9.58805 17.2362 10.3927 16.9092C9.16918 15.567 8.49213 13.8155 8.49473 11.9992C8.49473 10.1092 9.21373 8.38522 10.3927 7.08922ZM12.0947 8.20422C11.5876 8.69746 11.1846 9.28752 10.9098 9.93942C10.6349 10.5913 10.4938 11.2918 10.4947 11.9992C10.4947 13.4872 11.1077 14.8312 12.0947 15.7942C12.6019 15.301 13.0048 14.7109 13.2797 14.059C13.5545 13.4071 13.6957 12.7067 13.6947 11.9992C13.6957 11.2918 13.5545 10.5913 13.2797 9.93942C13.0048 9.28752 12.6019 8.69746 12.0947 8.20422Z" fill="white" fill-opacity="0.5"/>
</svg>
