<svg width="72" height="20" viewBox="0 0 72 20" fill="none" xmlns="http://www.w3.org/2000/svg">
<path d="M14.1631 2.15409C13.9085 1.64121 13.5011 1.23091 12.9918 0.871894C12.4825 0.564167 11.8714 0.307726 11.1584 0.20515C10.4454 0.0512867 9.63061 0 8.66299 0H4.23233C3.77398 0 3.31564 0.359014 3.21379 0.820605L0.20908 13.9503C0.107225 14.4119 0.412788 14.7709 0.871133 14.7709H3.01008C3.46842 14.7709 3.92677 14.4119 4.02862 13.9503L4.7416 10.7704C4.84346 10.3089 5.3018 9.94984 5.76015 9.94984H6.37127C8.96856 9.94984 11.0056 9.43697 12.4316 8.35992C13.9085 7.28288 14.6215 5.84682 14.6215 4.10303C14.5706 3.33371 14.4687 2.66697 14.1631 2.15409ZM9.57969 6.41098C8.91763 6.87257 8.05187 7.12901 6.88054 7.12901H6.37127C5.91293 7.12901 5.60736 6.77 5.70922 6.30841L6.37127 3.53886C6.47313 3.07727 6.93147 2.71826 7.38981 2.71826H8.1028C8.91763 2.71826 9.52876 2.87212 9.93617 3.12856C10.3436 3.385 10.5473 3.84659 10.5473 4.41076C10.5473 5.28265 10.2417 5.94939 9.57969 6.41098Z" fill="white" fill-opacity="0.5"/>
<path d="M24.4513 4.00097C23.6365 3.53938 22.3633 3.33423 20.6318 3.33423C19.766 3.33423 18.9002 3.38552 18.0854 3.53938C17.4743 3.64195 17.3724 3.64196 17.0159 3.74453C16.2011 3.89839 16.0992 4.719 16.0992 4.719L15.8446 5.79605C15.6918 6.46279 16.0992 6.46279 16.252 6.4115C16.6085 6.30893 16.8122 6.20635 17.5252 6.05249C18.2382 5.89862 18.9512 5.79605 19.5114 5.79605C20.3771 5.79605 20.9882 5.89862 21.4466 6.05249C21.854 6.25764 22.1086 6.56537 22.1086 7.02696L22.0577 7.33468L21.7522 7.53984C20.5299 7.59112 19.6641 7.74499 18.5947 7.89885C17.5761 8.05271 16.6594 8.30915 15.8955 8.66817C15.0807 9.02718 14.4696 9.48877 14.0621 10.1042C13.6547 10.7197 13.451 11.489 13.451 12.3609C13.451 13.1815 13.7566 13.8482 14.3168 14.4124C14.877 14.9253 15.6409 15.1817 16.5576 15.1817C17.1178 15.1817 17.5761 15.1304 17.8817 15.0792L18.9002 14.7201L19.766 14.2585L20.5808 13.7457L20.479 14.1047C20.3771 14.515 20.6318 14.874 21.0392 14.9253H21.0901H22.7198H23.0253H23.0763C23.4837 14.874 23.8911 14.515 23.9929 14.1047L25.5208 7.33468L25.6226 6.77052L25.6735 6.25764C25.6735 5.18059 25.2661 4.46256 24.4513 4.00097ZM20.9882 11.6429L20.6318 12.1045L19.8169 12.5148C19.4604 12.6686 19.053 12.7199 18.7474 12.7199C18.2382 12.7199 17.8308 12.6686 17.5252 12.4635L17.1178 11.6942C17.1178 11.2839 17.2196 10.9248 17.4233 10.6684L18.34 10.0529C18.7474 9.89908 19.2058 9.7965 19.766 9.74521C20.2753 9.69392 21.192 9.59135 21.3447 9.59135L21.4975 9.84779C21.3957 9.95037 21.141 11.0787 20.9882 11.6429Z" fill="white" fill-opacity="0.5"/>
<path d="M63.0559 4.05346C62.2411 3.59187 60.9679 3.38672 59.2364 3.38672C58.3706 3.38672 57.5049 3.43801 56.69 3.59187C56.028 3.69445 55.9771 3.69445 55.6206 3.79702C54.8057 3.95089 54.7039 4.77149 54.7039 4.77149L54.4492 5.84854C54.2965 6.51528 54.7039 6.51528 54.8567 6.46399C55.2131 6.36142 55.4169 6.25884 56.1298 6.10498C56.7919 5.95111 57.5558 5.84854 58.116 5.84854C58.9818 5.84854 59.5929 5.95111 60.0512 6.10498C60.4586 6.31013 60.7133 6.61786 60.7133 7.07945L60.6623 7.38717L60.3568 7.59233C59.1345 7.64361 58.2688 7.79748 57.1993 7.95134C56.1808 8.1052 55.2641 8.36164 54.5002 8.72066C53.6853 9.07967 53.0742 9.54127 52.6668 10.1567C52.2594 10.7722 52.0557 11.5415 52.0557 12.3621C52.0557 13.1827 52.3612 13.8494 52.9214 14.4136C53.4816 14.9265 54.2455 15.1829 55.1622 15.1829C55.7224 15.1829 56.1808 15.1316 56.4863 15.0804L57.5049 14.7213L58.3706 14.2598L59.1855 13.6956L59.1345 14.0546C59.0327 14.4649 59.2873 14.8239 59.6947 14.8752H59.7457C60.0003 14.8752 60.917 14.8752 61.3753 14.8752H61.6809H61.7318C62.1392 14.8239 62.5467 14.4649 62.6485 14.0546L64.2272 7.2846L64.3291 6.72043L64.38 6.20755C64.2782 5.18179 63.8708 4.46376 63.0559 4.05346ZM59.6438 11.6441L59.2873 12.1057L58.4725 12.516C58.0651 12.6698 57.7086 12.7724 57.3521 12.7724C56.7919 12.7724 56.4354 12.6698 56.1298 12.516L55.7224 11.6954C55.7224 11.2338 55.8243 10.926 56.028 10.6696C56.2317 10.4132 56.5372 10.208 56.9447 10.0541C57.3012 9.90028 57.8104 9.7977 58.3197 9.74641C58.778 9.69513 59.7457 9.59255 59.8984 9.59255L60.0512 9.84899C60.0512 9.95157 59.7457 11.1312 59.6438 11.6441Z" fill="white" fill-opacity="0.5"/>
<path d="M52.7676 2.20487C52.513 1.69199 52.1055 1.28169 51.5963 0.922676C51.087 0.614948 50.4759 0.358509 49.7629 0.255934C49.0499 0.153358 48.2351 0.0507812 47.2675 0.0507812H42.8368C42.3785 0.0507812 41.9201 0.409798 41.8183 0.871389L38.8136 14.0011C38.7117 14.4627 39.0173 14.8217 39.4756 14.8217H41.6146C42.0729 14.8217 42.5313 14.4627 42.6331 14.0011L43.3461 10.8212C43.4479 10.3597 43.9063 10.0006 44.3646 10.0006H44.9758C47.573 10.0006 49.6101 9.43647 51.0361 8.41071C52.462 7.33366 53.175 5.8976 53.175 4.15381C53.175 3.33321 53.0732 2.71775 52.7676 2.20487ZM48.1842 6.46177C47.5221 6.92336 46.6564 7.1798 45.485 7.1798H44.9758C44.5174 7.1798 44.2118 6.82078 44.3137 6.35919L44.9758 3.58965C45.0776 3.12806 45.536 2.76904 45.9943 2.76904H46.7073C47.5221 2.76904 48.1332 2.9229 48.5407 3.17934C48.9481 3.43578 49.1518 3.89737 49.1518 4.46154C49.1518 5.33344 48.8462 6.00018 48.1842 6.46177Z" fill="white" fill-opacity="0.5"/>
<path d="M71.001 0.972949C71.1028 0.511358 70.7973 0.152344 70.3389 0.152344H68.4546C68.0472 0.152344 67.6907 0.460071 67.5379 0.819086L67.4361 0.972949L67.3342 1.38325L64.686 13.5898L64.5842 13.9488C64.4823 14.3591 64.7369 14.6668 65.0934 14.7181L65.1444 14.7694H67.1305C67.5379 14.7694 67.8944 14.4617 68.0472 14.1026L68.1491 13.9488L71.001 0.972949Z" fill="white" fill-opacity="0.5"/>
<path d="M38.8643 3.48438C38.355 3.48438 36.3179 3.48438 36.3179 3.48438C35.8596 3.48438 35.2484 3.84339 34.9938 4.30498C34.9938 4.30498 31.9382 9.58763 31.6326 10.1005H31.2761L30.3085 4.35627C30.2066 3.89468 29.7483 3.53566 29.1372 3.53566H27.2529C26.7945 3.53566 26.489 3.89468 26.6417 4.35627C26.6417 4.35627 28.0677 12.6649 28.3733 14.6138C28.526 15.6909 28.3733 15.896 28.3733 15.896L26.489 19.1785C26.2343 19.6401 26.3362 19.9991 26.7945 19.9991H28.9844C29.4427 19.9991 30.0539 19.6401 30.3085 19.1785L38.7624 4.76657C38.8133 4.71528 39.6282 3.48438 38.8643 3.48438Z" fill="white" fill-opacity="0.5"/>
</svg>
