<svg width="42" height="14" viewBox="0 0 42 14" fill="none" xmlns="http://www.w3.org/2000/svg">
<path fill-rule="evenodd" clip-rule="evenodd" d="M19.6366 13.0056C20.4665 13.6273 21.9267 14 23.5419 14C26.8939 14 29.1428 12.1069 29.1428 9.29049C29.1428 7.75094 28.2429 6.52855 26.3984 5.56022C25.3613 4.98207 24.7359 4.59189 24.7359 4.10128C24.7359 3.64239 25.2196 3.14716 26.3594 3.14716C27.4685 3.14716 28.3245 3.58094 28.4804 3.6675L28.8848 3.88984L30.0163 0.858316L29.7183 0.695109C28.8742 0.22928 27.822 0 26.508 0C23.2978 0 21.0562 1.87389 21.0562 4.55687C21.0562 6.50411 22.5875 7.58477 23.9305 8.30862C25.1968 8.96375 25.4439 9.3384 25.4439 9.76425C25.4439 10.579 24.5608 10.871 23.8062 10.871C22.8201 10.871 21.7939 10.5909 20.9898 10.1095L20.59 9.86931L19.3924 12.8206L19.6366 13.0056ZM4.0732 13.806L2.54092 2.82165L6.2593 5.1584L0 0.205408H6.01581L6.6237 6.66458C6.69936 7.43304 6.76213 8.18629 6.81994 8.96069C7.13314 8.21801 7.49722 7.40694 7.91944 6.51195L10.9001 0.205078H14.8573L7.84014 13.806H4.0732ZM20.1396 0.205078L17.5597 13.8057H14.0148L16.5983 0.205078H20.1396ZM34.0811 10.4824L32.5594 13.806H28.7637L35.3838 0.205078H39.4996L41.0947 13.806H37.4153L37.1493 10.4824H34.0811ZM36.6868 4.38631C36.5451 4.75039 36.3994 5.09563 36.2576 5.40189L35.2467 7.6002H36.967L36.7565 5.27436C36.7458 5.12526 36.7328 4.9637 36.719 4.79259C36.7085 4.66228 36.6975 4.52643 36.6868 4.38631Z" fill="white" fill-opacity="0.5"/>
</svg>
